<?xml version="1.0" encoding="UTF-8" standalone="no"?>
<!-- Created with Inkscape (http://www.inkscape.org/) -->

<svg
   width="210mm"
   height="297mm"
   viewBox="0 0 210 297"
   version="1.1"
   id="svg5974"
   inkscape:version="1.1 (c68e22c387, 2021-05-23)"
   sodipodi:docname="Birds of a Feather Icon.svg"
   xmlns:inkscape="http://www.inkscape.org/namespaces/inkscape"
   xmlns:sodipodi="http://sodipodi.sourceforge.net/DTD/sodipodi-0.dtd"
   xmlns="http://www.w3.org/2000/svg"
   xmlns:svg="http://www.w3.org/2000/svg">
  <sodipodi:namedview
     id="namedview5976"
     pagecolor="#ffffff"
     bordercolor="#666666"
     borderopacity="1.0"
     inkscape:pageshadow="2"
     inkscape:pageopacity="0.0"
     inkscape:pagecheckerboard="0"
     inkscape:document-units="mm"
     showgrid="false"
     inkscape:zoom="1.0431611"
     inkscape:cx="396.39133"
     inkscape:cy="538.26779"
     inkscape:window-width="958"
     inkscape:window-height="981"
     inkscape:window-x="952"
     inkscape:window-y="0"
     inkscape:window-maximized="0"
     inkscape:current-layer="layer1" />
  <defs
     id="defs5971" />
  <g
     inkscape:label="Layer 1"
     inkscape:groupmode="layer"
     id="layer1">
    <g
       id="g11363"
       inkscape:export-filename="C:\Users\gbqui\OneDrive\Documents\GeoNova\Games\Hyper Arc Phase 1\Babel\Babel Armada\BA Store\Birds of a Feather Icon.png"
       inkscape:export-xdpi="96"
       inkscape:export-ydpi="96"
       transform="translate(75.216259,-65.818995)">
      <rect
         style="fill:#000000;fill-opacity:1;stroke:#000000;stroke-width:0.5;stroke-miterlimit:4;stroke-dasharray:none;stroke-dashoffset:9.44882;stroke-opacity:1"
         id="rect850-07-1"
         width="8.2592278"
         height="8.2592278"
         x="23.630396"
         y="201.23177"
         rx="1"
         ry="1" />
      <g
         id="g6777"
         transform="matrix(1.1475264,0,0,1.1475264,-3.848824,-30.036422)">
        <path
           style="color:#000000;fill:#dbdbdb;-inkscape-stroke:none"
           d="m 26.257812,202.76953 c -0.263999,0.15832 -0.457309,0.44062 -0.476562,0.77539 -0.01925,0.33478 0.165984,0.69886 0.556641,0.94922 0.414093,-0.43713 -0.02383,-0.50949 -0.02539,-0.91992 0.008,-0.13865 0.102845,-0.2801 0.21875,-0.34961 0.115905,-0.0695 0.211776,-0.0794 0.322266,0.008 0.109744,0.0866 0.256915,0.33747 0.292968,0.86133 v 1.9375 c -0.03168,0.63609 -0.194869,0.93348 -0.296875,1.01562 -0.0513,0.0413 -0.08264,0.0473 -0.130859,0.043 -0.04822,-0.004 -0.113616,-0.0307 -0.179688,-0.082 -0.132142,-0.10268 -0.247237,-0.306 -0.255859,-0.48047 0.0057,-0.5526 0.341496,-0.39646 0.07031,-0.93359 -0.422525,0.21321 -0.619135,0.60538 -0.601563,0.96094 0.01757,0.35556 0.200884,0.67097 0.460938,0.87304 0.130026,0.10104 0.283904,0.17574 0.457031,0.19141 0.173127,0.0157 0.362549,-0.0385 0.513672,-0.16016 0.302245,-0.24339 0.460311,-0.68973 0.49414,-1.4082 l 0.002,-0.008 v -1.9707 l -0.002,-0.008 c -0.04031,-0.61613 -0.21073,-1.02476 -0.496093,-1.25 -0.285363,-0.22523 -0.659829,-0.20323 -0.923829,-0.0449 z"
           id="path90109"
           sodipodi:nodetypes="csccscccsccccssscccccscc" />
        <path
           style="color:#000000;fill:#dbdbdb;-inkscape-stroke:none"
           d="m 28.830901,202.76953 c 0.263999,0.15832 0.457309,0.44062 0.476562,0.77539 0.01925,0.33478 -0.165984,0.69886 -0.556641,0.94922 -0.414093,-0.43713 0.02383,-0.50949 0.02539,-0.91992 -0.008,-0.13865 -0.102845,-0.2801 -0.21875,-0.34961 -0.115905,-0.0695 -0.211776,-0.0794 -0.322266,0.008 -0.109744,0.0866 -0.256915,0.33747 -0.292968,0.86133 v 1.9375 c 0.03168,0.63609 0.194869,0.93348 0.296875,1.01562 0.0513,0.0413 0.08264,0.0473 0.130859,0.043 0.04822,-0.004 0.113616,-0.0307 0.179688,-0.082 0.132142,-0.10268 0.247237,-0.306 0.255859,-0.48047 -0.0057,-0.5526 -0.341496,-0.39646 -0.07031,-0.93359 0.422525,0.21321 0.619135,0.60538 0.601563,0.96094 -0.01757,0.35556 -0.200884,0.67097 -0.460938,0.87304 -0.130026,0.10104 -0.283904,0.17574 -0.457031,0.19141 -0.173127,0.0157 -0.362549,-0.0385 -0.513672,-0.16016 -0.302245,-0.24339 -0.460311,-0.68973 -0.49414,-1.4082 l -0.002,-0.008 v -1.9707 l 0.002,-0.008 c 0.04031,-0.61613 0.21073,-1.02476 0.496093,-1.25 0.285363,-0.22523 0.659829,-0.20323 0.923829,-0.0449 z"
           id="path90109-4"
           sodipodi:nodetypes="csccscccsccccssscccccscc" />
      </g>
      <circle
         style="fill:#dbdbdb;fill-opacity:1;stroke:#dbdbdb;stroke-width:0.222667;stroke-miterlimit:4;stroke-dasharray:none;stroke-dashoffset:9.44882;stroke-opacity:1"
         id="path6986"
         cx="24.580643"
         cy="205.36137"
         r="0.1822564" />
      <circle
         style="fill:#dbdbdb;fill-opacity:1;stroke:#dbdbdb;stroke-width:0.222667;stroke-miterlimit:4;stroke-dasharray:none;stroke-dashoffset:9.44882;stroke-opacity:1"
         id="path6986-4"
         cx="30.939375"
         cy="205.36137"
         r="0.1822564" />
    </g>
  </g>
</svg>
